<svg xmlns="http://www.w3.org/2000/svg" width="35.885" height="24.843" viewBox="0 0 35.885 24.843">
  <g id="Icon_ionic-ios-mail" data-name="Icon ionic-ios-mail" transform="translate(-3.375 -7.875)">
    <path id="Path_158" data-name="Path 158" d="M38.966,10.367l-9.282,9.454a.167.167,0,0,0,0,.242l6.5,6.918a1.119,1.119,0,0,1,0,1.587,1.125,1.125,0,0,1-1.587,0l-6.47-6.892a.177.177,0,0,0-.25,0l-1.579,1.6a6.945,6.945,0,0,1-4.951,2.088,7.085,7.085,0,0,1-5.055-2.148L14.77,21.676a.177.177,0,0,0-.25,0L8.05,28.568a1.125,1.125,0,0,1-1.587,0,1.119,1.119,0,0,1,0-1.587l6.5-6.918a.184.184,0,0,0,0-.242l-9.29-9.454a.17.17,0,0,0-.293.121V29.4a2.768,2.768,0,0,0,2.76,2.76H36.5a2.768,2.768,0,0,0,2.76-2.76V10.488A.173.173,0,0,0,38.966,10.367Z" transform="translate(0 0.553)" fill="#0a993c"/>
    <path id="Path_159" data-name="Path 159" d="M21.124,23.669A4.69,4.69,0,0,0,24.5,22.255L38.032,8.479a2.711,2.711,0,0,0-1.708-.6H5.934a2.693,2.693,0,0,0-1.708.6L17.76,22.255A4.69,4.69,0,0,0,21.124,23.669Z" transform="translate(0.193 0)" fill="#0a993c"/>
  </g>
</svg>
