<svg xmlns="http://www.w3.org/2000/svg" width="25.457" height="23.76" viewBox="0 0 25.457 23.76">
  <path id="Icon_awesome-university" data-name="Icon awesome-university" d="M26.582,7.341V8.19a.424.424,0,0,1-.424.424H24.885v.636a.636.636,0,0,1-.636.636H3.459a.636.636,0,0,1-.636-.636V8.614H1.549a.424.424,0,0,1-.424-.424V7.341a.424.424,0,0,1,.262-.392l12.3-4.667a.424.424,0,0,1,.324,0l12.3,4.667A.424.424,0,0,1,26.582,7.341ZM25.309,23.464H2.4a1.273,1.273,0,0,0-1.273,1.273v.849a.424.424,0,0,0,.424.424H26.158a.424.424,0,0,0,.424-.424v-.849A1.273,1.273,0,0,0,25.309,23.464ZM5.368,10.736V20.919H3.459a.636.636,0,0,0-.636.636v1.061H24.885V21.555a.636.636,0,0,0-.636-.636H22.339V10.736H18.945V20.919H15.551V10.736H12.157V20.919H8.762V10.736Z" transform="translate(-1.125 -2.25)" fill="#0a993c"/>
</svg>
