<svg xmlns="http://www.w3.org/2000/svg" width="29.001" height="29.001" viewBox="0 0 29.001 29.001">
  <path id="Icon_material-local-phone" data-name="Icon material-local-phone" d="M10.332,17.051A24.407,24.407,0,0,0,20.95,27.668l3.545-3.545a1.6,1.6,0,0,1,1.643-.387,18.378,18.378,0,0,0,5.752.918A1.616,1.616,0,0,1,33.5,26.267v5.623A1.616,1.616,0,0,1,31.889,33.5,27.387,27.387,0,0,1,4.5,6.111,1.616,1.616,0,0,1,6.111,4.5H11.75a1.616,1.616,0,0,1,1.611,1.611,18.3,18.3,0,0,0,.918,5.752,1.617,1.617,0,0,1-.4,1.643l-3.545,3.545Z" transform="translate(-4.5 -4.5)" fill="#0a993c"/>
</svg>
