<svg xmlns="http://www.w3.org/2000/svg" width="25" height="25" viewBox="0 0 25 25">
  <path id="Icon_awesome-fax" data-name="Icon awesome-fax" d="M3.125,6.25H1.563A1.563,1.563,0,0,0,0,7.813V23.438A1.563,1.563,0,0,0,1.563,25H3.125a1.563,1.563,0,0,0,1.563-1.562V7.813A1.563,1.563,0,0,0,3.125,6.25ZM23.438,7.813V3.772a1.563,1.563,0,0,0-.458-1.1L20.77.458A1.563,1.563,0,0,0,19.665,0H7.813A1.563,1.563,0,0,0,6.25,1.563V23.438A1.563,1.563,0,0,0,7.813,25H23.438A1.563,1.563,0,0,0,25,23.438V9.375A1.563,1.563,0,0,0,23.438,7.813ZM14.063,21.094a.781.781,0,0,1-.781.781H11.719a.781.781,0,0,1-.781-.781V19.531a.781.781,0,0,1,.781-.781h1.563a.781.781,0,0,1,.781.781Zm0-6.25a.781.781,0,0,1-.781.781H11.719a.781.781,0,0,1-.781-.781V13.281a.781.781,0,0,1,.781-.781h1.563a.781.781,0,0,1,.781.781Zm6.25,6.25a.781.781,0,0,1-.781.781H17.969a.781.781,0,0,1-.781-.781V19.531a.781.781,0,0,1,.781-.781h1.563a.781.781,0,0,1,.781.781Zm0-6.25a.781.781,0,0,1-.781.781H17.969a.781.781,0,0,1-.781-.781V13.281a.781.781,0,0,1,.781-.781h1.563a.781.781,0,0,1,.781.781Zm.781-5.469H8.594V2.344H18.75V3.906a.781.781,0,0,0,.781.781h1.563Z" fill="#0a993c"/>
</svg>
